<svg xmlns="http://www.w3.org/2000/svg" width="35" height="30" viewBox="0 0 35 30"><g transform="translate(-1842 -24)"><rect width="35" height="30" transform="translate(1842 24)" fill="#c00"/><path d="M1.032,14.963A1.548,1.548,0,0,0,2.58,16.511h9.288a1.548,1.548,0,0,0,1.548-1.548V4.128H1.032ZM9.8,6.707a.516.516,0,1,1,1.032,0v7.224a.516.516,0,0,1-1.032,0Zm-3.1,0a.516.516,0,0,1,1.032,0v7.224a.516.516,0,0,1-1.032,0Zm-3.1,0a.516.516,0,0,1,1.032,0v7.224a.516.516,0,0,1-1.032,0ZM13.931,1.032h-3.87l-.3-.6A.774.774,0,0,0,9.065,0H5.379a.765.765,0,0,0-.69.429l-.3.6H.516A.516.516,0,0,0,0,1.548V2.58A.516.516,0,0,0,.516,3.1H13.931a.516.516,0,0,0,.516-.516V1.548A.516.516,0,0,0,13.931,1.032Z" transform="translate(1851.999 31.001)" fill="#fff"/></g></svg>