<svg xmlns="http://www.w3.org/2000/svg" width="35.484" height="35.484" viewBox="0 0 35.484 35.484">
  <path id="download-solid" d="M14.97,0h5.544a1.659,1.659,0,0,1,1.663,1.663V13.307h6.078a1.384,1.384,0,0,1,.977,2.363L18.692,26.218a1.343,1.343,0,0,1-1.892,0L6.244,15.67a1.384,1.384,0,0,1,.977-2.363h6.085V1.663A1.659,1.659,0,0,1,14.97,0ZM35.484,26.059v7.762a1.659,1.659,0,0,1-1.663,1.663H1.663A1.659,1.659,0,0,1,0,33.821V26.059A1.659,1.659,0,0,1,1.663,24.4H11.83l3.4,3.4a3.551,3.551,0,0,0,5.032,0l3.4-3.4H33.821A1.659,1.659,0,0,1,35.484,26.059Zm-8.594,6.1A1.386,1.386,0,1,0,25.5,33.544,1.39,1.39,0,0,0,26.891,32.158Zm4.436,0a1.386,1.386,0,1,0-1.386,1.386A1.39,1.39,0,0,0,31.326,32.158Z" fill="#fff"/>
</svg>
