<svg xmlns="http://www.w3.org/2000/svg" width="35" height="30" viewBox="0 0 35 30"><g transform="translate(-1802 -24)"><rect width="35" height="30" transform="translate(1802 24)" fill="#ffbe73"/><path d="M20.732,69.234a.248.248,0,0,1,.4.194v8.441a1.982,1.982,0,0,1-1.981,1.981H1.981A1.982,1.982,0,0,1,0,77.868V69.432a.247.247,0,0,1,.4-.194c.925.718,2.15,1.63,6.36,4.689.871.636,2.34,1.973,3.806,1.965,1.474.012,2.972-1.354,3.81-1.965C18.586,70.868,19.808,69.952,20.732,69.234ZM10.566,74.566c.958.017,2.336-1.205,3.03-1.709,5.477-3.975,5.894-4.321,7.157-5.312a.988.988,0,0,0,.38-.78v-.784A1.982,1.982,0,0,0,19.152,64H1.981A1.982,1.982,0,0,0,0,65.981v.784a.994.994,0,0,0,.38.78c1.263.986,1.68,1.337,7.157,5.312C8.23,73.361,9.609,74.583,10.566,74.566Z" transform="translate(1809.434 -32.925)" fill="#fff"/></g></svg>