<svg xmlns="http://www.w3.org/2000/svg" width="35" height="30" viewBox="0 0 35 30"><g transform="translate(-1722 -25)"><rect width="35" height="30" transform="translate(1722 25)" fill="#2196f3"/><path d="M24.054,71.453A13.475,13.475,0,0,0,12.1,64,13.477,13.477,0,0,0,.147,71.453a1.359,1.359,0,0,0,0,1.226A13.475,13.475,0,0,0,12.1,80.133a13.477,13.477,0,0,0,11.953-7.453,1.359,1.359,0,0,0,0-1.226ZM12.1,78.116a6.05,6.05,0,1,1,6.05-6.05A6.05,6.05,0,0,1,12.1,78.116Zm0-10.083a4,4,0,0,0-1.063.159A2.01,2.01,0,0,1,8.226,71a4.024,4.024,0,1,0,3.874-2.97Z" transform="translate(1726.899 -32.066)" fill="#fff"/></g></svg>